<?xml version="1.0" encoding="UTF-8" standalone="no"?>
<!-- Created with Inkscape (http://www.inkscape.org/) -->

<svg
   xmlns:dc="http://purl.org/dc/elements/1.1/"
   xmlns:cc="http://creativecommons.org/ns#"
   xmlns:rdf="http://www.w3.org/1999/02/22-rdf-syntax-ns#"
   xmlns:svg="http://www.w3.org/2000/svg"
   xmlns="http://www.w3.org/2000/svg"
   xmlns:sodipodi="http://sodipodi.sourceforge.net/DTD/sodipodi-0.dtd"
   xmlns:inkscape="http://www.inkscape.org/namespaces/inkscape"
   width="210mm"
   height="297mm"
   viewBox="0 0 210 297"
   version="1.1"
   id="svg8"
   inkscape:version="0.92.3 (2405546, 2018-03-11)"
   sodipodi:docname="Fire Particle.svg">
  <defs
     id="defs2" />
  <sodipodi:namedview
     id="base"
     pagecolor="#ffffff"
     bordercolor="#666666"
     borderopacity="1.0"
     inkscape:pageopacity="0.0"
     inkscape:pageshadow="2"
     inkscape:zoom="0.98994949"
     inkscape:cx="339.51692"
     inkscape:cy="574.61825"
     inkscape:document-units="mm"
     inkscape:current-layer="layer2"
     showgrid="false"
     showborder="true"
     inkscape:window-width="1920"
     inkscape:window-height="1017"
     inkscape:window-x="-8"
     inkscape:window-y="-8"
     inkscape:window-maximized="1"
     inkscape:snap-global="false" />
  <metadata
     id="metadata5">
    <rdf:RDF>
      <cc:Work
         rdf:about="">
        <dc:format>image/svg+xml</dc:format>
        <dc:type
           rdf:resource="http://purl.org/dc/dcmitype/StillImage" />
        <dc:title></dc:title>
      </cc:Work>
    </rdf:RDF>
  </metadata>
  <g
     inkscape:label="Layer 1"
     inkscape:groupmode="layer"
     id="layer1" />
  <g
     inkscape:groupmode="layer"
     id="layer2"
     inkscape:label="Layer 2">
    <path
       style="fill:#ef7904;fill-opacity:1;stroke:#ef7904;stroke-width:0.60781813px;stroke-linecap:butt;stroke-linejoin:miter;stroke-opacity:1"
       d="m 83.332623,174.36004 c 0.651233,-16.93207 0,-15.08692 1.302466,-17.04061 1.302469,-3.03862 8.140422,-9.36733 9.877045,-11.93928 1.854237,-2.74617 1.19393,-8.14043 1.845163,-7.05504 0.651234,1.08539 1.085389,3.47324 1.736623,1.51955 0.651233,-1.95371 6.94649,-9.33434 -1.953701,-17.58332 5.752561,-1.411 18.234551,14.11006 18.234551,14.11006 2.60493,4.01594 5.20986,11.07098 5.8611,9.11727 0.65123,-1.95368 2.60493,-4.12446 2.60493,-4.12446 l -1.08539,6.29524 c 0.51,4.02109 1.9531,7.48231 3.9074,10.63682 3.70857,5.27972 4.89651,10.45601 4.55863,14.00151 l 2.82203,-2.71346 c -1.38985,10.38284 -4.13468,13.08752 -6.29526,19.10287 -4.73914,5.20335 -10.3124,8.90528 -16.49793,11.50512 -5.4993,1.05359 -10.998612,1.11637 -16.497919,0.43416 -5.564606,-1.14496 -8.344869,-4.37816 -11.722205,-7.16357 -1.47572,-1.40664 -3.276135,-3.09542 -3.256169,-5.42694 2.581161,2.05088 3.225379,0.22789 4.775713,0.21709 -2.703941,-3.48086 -3.269493,-7.31812 -4.341558,-11.07098 l 0.434156,-8.03188 c 1.085391,2.46021 2.315496,4.19682 3.690325,5.20985 z"
       id="path836"
       inkscape:connector-curvature="0"
       sodipodi:nodetypes="ccsscccccccccccccccccc" />
    <path
       sodipodi:nodetypes="ccssccccccccccccccccccc"
       inkscape:connector-curvature="0"
       id="path838"
       d="m 86.566495,177.02163 c 0.557746,-14.50142 0,-12.92116 1.11549,-14.59439 1.115499,-2.60237 6.971842,-8.0226 8.45916,-10.22536 1.588056,-2.35189 1.022538,-6.97181 1.580285,-6.04224 0.55775,0.92961 0.929579,2.97463 1.487325,1.30142 0.557744,-1.67328 6.139765,-13.19538 3.189245,-20.39368 4.5263,1.59474 10.75443,17.41902 10.75443,17.41902 2.23098,3.43944 4.46197,9.48171 5.01971,7.80847 0.55775,-1.67323 2.23099,-3.53241 2.23099,-3.53241 l -0.92958,5.39154 c 0.43679,3.44386 1.67273,6.40818 3.34648,9.10986 3.17619,4.52182 4.1936,8.95501 3.90423,11.99156 l 2.41691,-2.32394 c -1.19033,8.89235 -3.54113,11.20875 -5.39155,16.3606 -4.05881,4.4564 -8.83202,7.6269 -14.12959,9.85352 -4.70986,0.90232 -9.41973,0.9561 -14.129587,0.37184 -4.765788,-0.98061 -7.146936,-3.74967 -10.039441,-6.13524 -0.929577,-1.2822 -1.859156,-2.8705 -2.788735,-4.6479 l 4.090143,0.18585 c -2.315781,-2.9812 -2.800144,-6.2676 -3.718315,-9.48171 l 0.371833,-6.87888 c 0.92958,2.10707 1.983099,3.59439 3.160567,4.46198 z"
       style="fill:#f67d04;fill-opacity:1;stroke:#ef7904;stroke-width:0.52056366px;stroke-linecap:butt;stroke-linejoin:miter;stroke-opacity:1" />
    <path
       style="fill:#fa8f24;fill-opacity:1;stroke:none;stroke-width:0.41662306px;stroke-linecap:butt;stroke-linejoin:miter;stroke-opacity:1"
       d="m 90.420484,178.86482 c 0.44638,-11.60591 0,-10.3412 0.89276,-11.68033 0.892769,-2.08275 5.579778,-6.42073 6.770125,-8.18366 1.27097,-1.88229 0.81837,-5.57976 1.264749,-4.83579 0.446387,0.74399 0.743972,2.38068 1.190362,1.04155 0.44637,-1.33917 6.15608,-10.4145 4.81771,-16.24859 3.33025,1.93397 6.34183,13.86789 6.34183,13.86789 1.78553,2.75269 3.57105,7.58849 4.01744,6.24937 0.44638,-1.33915 1.78552,-2.82712 1.78552,-2.82712 l -0.74397,4.31502 c 0.34958,2.75624 1.33874,5.12867 2.67829,7.2909 2.542,3.61895 3.35627,7.16697 3.12467,9.59723 l 1.93433,-1.85994 c -0.95266,7.11683 -2.83407,8.97071 -4.31503,13.09389 -3.24838,3.56659 -7.06852,6.10405 -11.30834,7.88607 -3.76945,0.72217 -7.53889,0.76521 -11.308338,0.2976 -3.814206,-0.7848 -5.719911,-3.00096 -8.034872,-4.91022 -0.743967,-1.02617 -1.487939,-2.29734 -2.231909,-3.71985 l 3.273465,0.14874 c -1.85339,-2.38595 -2.24104,-5.01615 -2.97588,-7.5885 l 0.29759,-5.50539 c 0.743969,1.68636 1.587134,2.8767 2.529498,3.57107 z"
       id="path1421"
       inkscape:connector-curvature="0"
       sodipodi:nodetypes="ccssccccccccccccccccccc" />
  </g>
</svg>
