<?xml version="1.0" encoding="UTF-8" standalone="no"?>
<!-- Created with Inkscape (http://www.inkscape.org/) -->

<svg
   xmlns:dc="http://purl.org/dc/elements/1.1/"
   xmlns:cc="http://creativecommons.org/ns#"
   xmlns:rdf="http://www.w3.org/1999/02/22-rdf-syntax-ns#"
   xmlns:svg="http://www.w3.org/2000/svg"
   xmlns="http://www.w3.org/2000/svg"
   xmlns:sodipodi="http://sodipodi.sourceforge.net/DTD/sodipodi-0.dtd"
   xmlns:inkscape="http://www.inkscape.org/namespaces/inkscape"
   width="210mm"
   height="297mm"
   viewBox="0 0 210 297"
   version="1.1"
   id="svg8"
   inkscape:version="0.92.3 (2405546, 2018-03-11)"
   sodipodi:docname="Smoke Particle.svg">
  <defs
     id="defs2" />
  <sodipodi:namedview
     id="base"
     pagecolor="#ffffff"
     bordercolor="#666666"
     borderopacity="1.0"
     inkscape:pageopacity="0.0"
     inkscape:pageshadow="2"
     inkscape:zoom="0.49497475"
     inkscape:cx="-364.25525"
     inkscape:cy="580.38466"
     inkscape:document-units="mm"
     inkscape:current-layer="layer2"
     showgrid="false"
     showborder="true"
     inkscape:window-width="1920"
     inkscape:window-height="1017"
     inkscape:window-x="-8"
     inkscape:window-y="-8"
     inkscape:window-maximized="1" />
  <metadata
     id="metadata5">
    <rdf:RDF>
      <cc:Work
         rdf:about="">
        <dc:format>image/svg+xml</dc:format>
        <dc:type
           rdf:resource="http://purl.org/dc/dcmitype/StillImage" />
        <dc:title></dc:title>
      </cc:Work>
    </rdf:RDF>
  </metadata>
  <g
     inkscape:label="Layer 1"
     inkscape:groupmode="layer"
     id="layer1" />
  <g
     inkscape:groupmode="layer"
     id="layer2"
     inkscape:label="Layer 2">
    <g
       id="g860">
      <path
         sodipodi:nodetypes="ccscsccsscccccccccsccccsc"
         inkscape:connector-curvature="0"
         id="path3725"
         d="m 77.286915,135.82558 c 0,0 -0.94494,-6.4256 0.56696,-6.99256 1.51191,-0.56697 7.9375,-2.83482 9.44941,-3.96875 1.5119,-1.13393 8.69345,-6.04762 9.4494,-7.18155 0.75596,-1.13393 6.425595,-7.37054 8.315475,-6.99256 1.88988,0.37798 5.85863,1.32292 6.80357,1.88988 7.92798,-0.68542 10.30673,6.10143 14.36309,6.04762 1.51191,0 3.02381,1.51191 3.96875,3.02381 0.94494,1.5119 3.02381,0 4.53572,2.07887 1.5119,2.07887 6.2366,7.74851 6.80357,10.77232 -0.67883,5.74838 8.78219,5.81386 9.63839,8.88244 0.75595,10.20536 -5.85863,10.20535 -5.85863,10.20535 -1.46389,4.75044 -0.86143,4.55913 -0.75595,9.82739 0,1.70089 -2.26786,10.39434 -3.59077,11.90625 -1.32292,1.5119 -6.99256,7.18155 -9.44941,8.50446 -2.45684,1.32292 -4.53571,10.39435 -6.61458,10.96131 -2.07887,0.56697 -10.58334,1.51191 -13.98512,1.88988 -3.40179,0.37798 -10.01637,3.96875 -13.229165,3.40179 -3.2128,-0.56697 -7.37053,-1.13393 -9.07143,-3.2128 -1.70089,-2.07887 -6.99256,-5.48065 -8.88244,-8.12648 -1.88988,-2.64584 0,-7.18156 -2.26785,-6.61459 -2.26786,0.56696 -3.96875,-0.18899 -5.10268,-0.56696 -9.649333,-8.10415 -3.0537,-14.95331 -5.102681,-24.94643 -1.133928,-2.64584 -5.896881,-1.34553 -1.322916,-9.82738 4.576027,-8.48567 11.339287,-10.96131 11.339287,-10.96131 z"
         style="fill:#707070;fill-opacity:1;stroke:#d1d1d1;stroke-width:0.26458332px;stroke-linecap:butt;stroke-linejoin:miter;stroke-opacity:1" />
      <path
         style="fill:#6b6b6b;fill-opacity:1;stroke:none;stroke-width:0.24373472px;stroke-linecap:butt;stroke-linejoin:miter;stroke-opacity:1"
         d="m 79.677145,137.36862 c 0,0 -0.87048,-5.91927 0.52229,-6.44155 1.39277,-0.52231 7.31204,-2.61146 8.70481,-3.65605 1.39277,-1.04456 8.00843,-5.57108 8.70481,-6.61564 0.69639,-1.04459 5.919275,-6.78976 7.660235,-6.44157 1.74096,0.34821 5.39698,1.21868 6.26746,1.74096 7.30328,-0.6314 9.49459,5.62066 13.23132,5.57108 1.39277,0 2.78554,1.39278 3.65602,2.78555 0.87048,1.39277 2.78554,0 4.17831,1.91506 1.39277,1.91506 5.74517,7.13794 6.26746,9.92347 -0.62534,5.29542 8.09018,5.35575 8.87891,8.18254 0.69638,9.40119 -5.39698,9.40119 -5.39698,9.40119 -1.34854,4.3761 -0.79356,4.19988 -0.69639,9.05301 0,1.56687 -2.08915,9.57528 -3.30783,10.96806 -1.21867,1.39275 -6.44156,6.61565 -8.70481,7.83433 -2.26325,1.21868 -4.17831,9.57529 -6.09337,10.09759 -1.91506,0.52228 -9.74939,1.39276 -12.88312,1.74094 -3.13373,0.34821 -9.2271,3.65602 -12.186735,3.13374 -2.95963,-0.52229 -6.78975,-1.04457 -8.35661,-2.95962 -1.56687,-1.91506 -6.44156,-5.0488 -8.18253,-7.48613 -1.74096,-2.43737 0,-6.61568 -2.08915,-6.09339 -2.08916,0.52228 -3.65602,-0.1741 -4.7006,-0.52228 -8.888985,-7.46556 -2.81307,-13.77502 -4.7006,-22.98072 -1.04458,-2.43734 -5.432219,-1.23949 -1.21867,-9.05298 4.21544,-7.81703 10.44577,-10.09759 10.44577,-10.09759 z"
         id="path4542"
         inkscape:connector-curvature="0"
         sodipodi:nodetypes="ccscsccsscccccccccsccccsc" />
      <path
         sodipodi:nodetypes="ccscsccsscccccccccsccccsc"
         inkscape:connector-curvature="0"
         id="path835"
         d="m 83.607895,139.90615 c 0,0 -0.74803,-5.08662 0.44882,-5.53543 1.19686,-0.44884 6.28348,-2.24411 7.48033,-3.14176 1.19685,-0.89762 6.8819,-4.78741 7.48032,-5.68503 0.59843,-0.89765 5.086615,-5.83466 6.582685,-5.53545 1.49606,0.29923 4.6378,1.04725 5.38583,1.49606 6.27594,-0.54258 8.15901,4.83002 11.37009,4.78741 1.19686,0 2.39371,1.19686 3.14174,2.39371 0.74803,1.19685 2.39371,0 3.59056,1.64568 1.19685,1.64567 4.93701,6.13386 5.38583,8.52755 -0.53737,4.55053 6.95215,4.60237 7.62993,7.03152 0.59843,8.07875 -4.6378,8.07875 -4.6378,8.07875 -1.15884,3.76052 -0.68193,3.60909 -0.59842,7.77954 0,1.34646 -1.79528,8.22835 -2.84253,9.42521 -1.04724,1.19683 -5.53544,5.68504 -7.48032,6.73229 -1.94489,1.04725 -3.59056,8.22835 -5.23623,8.67718 -1.64567,0.44881 -8.37796,1.19685 -11.07088,1.49605 -2.69292,0.29923 -7.92914,3.14173 -10.472455,2.69292 -2.54331,-0.44882 -5.83465,-0.89763 -7.18111,-2.5433 -1.34645,-1.64567 -5.53544,-4.33859 -7.0315,-6.43307 -1.49607,-2.09451 0,-5.68506 -1.79528,-5.23624 -1.79528,0.44881 -3.14174,-0.14961 -4.03938,-0.44882 -7.63859,-6.41539 -2.41736,-11.83731 -4.03937,-19.74807 -0.89764,-2.09448 -4.66808,-1.06513 -1.04725,-7.77951 3.62247,-6.71743 8.97639,-8.67719 8.97639,-8.67719 z"
         style="fill:#626262;fill-opacity:1;stroke:none;stroke-width:0.20944908px;stroke-linecap:butt;stroke-linejoin:miter;stroke-opacity:1" />
      <path
         sodipodi:nodetypes="ccsc"
         inkscape:connector-curvature="0"
         id="path843"
         d="m 131.71548,156.61427 c -3.77976,12.8512 -9.63839,18.14285 -6.99256,17.00893 2.64583,-1.13394 6.0711,-4.72288 6.42559,-9.44941 z"
         style="fill:#6b6b6b;fill-opacity:1;stroke:none;stroke-width:0.26458332px;stroke-linecap:butt;stroke-linejoin:miter;stroke-opacity:1" />
      <path
         sodipodi:nodetypes="cccc"
         style="fill:#6b6b6b;fill-opacity:1;stroke:none;stroke-width:0.26458332px;stroke-linecap:butt;stroke-linejoin:miter;stroke-opacity:1"
         d="m 99.451545,132.41383 c 6.992545,-6.80357 17.386895,-4.15774 17.386895,-4.15774 -1.13394,-2.64583 -6.04762,-4.53572 -10.39435,-2.64583 -4.34673,1.88988 -6.992545,6.80357 -6.992545,6.80357 z"
         id="path845"
         inkscape:connector-curvature="0" />
      <path
         inkscape:connector-curvature="0"
         id="path847"
         d="m 78.366905,159.21779 c -0.0371,-9.75618 9.08641,-15.39572 9.08641,-15.39572 -2.691,-1.02213 -7.46369,1.19986 -9.1235,5.63954 -1.65983,4.43968 0.0371,9.75618 0.0371,9.75618 z"
         style="fill:#6b6b6b;fill-opacity:1;stroke:none;stroke-width:0.26458332px;stroke-linecap:butt;stroke-linejoin:miter;stroke-opacity:1"
         sodipodi:nodetypes="cccc" />
      <path
         sodipodi:nodetypes="cccc"
         style="fill:#6b6b6b;fill-opacity:1;stroke:none;stroke-width:0.26458332px;stroke-linecap:butt;stroke-linejoin:miter;stroke-opacity:1"
         d="m 107.87446,186.21138 c -9.697855,1.06584 -16.268175,-7.412 -16.268175,-7.412 -0.73262,2.7838 1.98035,7.29552 6.57032,8.47784 4.589965,1.18233 9.697855,-1.06584 9.697855,-1.06584 z"
         id="path849"
         inkscape:connector-curvature="0" />
    </g>
  </g>
</svg>
