<?xml version="1.0" encoding="utf-8"?>
<!-- Generator: Adobe Illustrator 22.0.1, SVG Export Plug-In . SVG Version: 6.00 Build 0)  -->
<svg version="1.1" xmlns="http://www.w3.org/2000/svg" xmlns:xlink="http://www.w3.org/1999/xlink" x="0px" y="0px"
	 viewBox="0 0 1366 768" style="enable-background:new 0 0 1366 768;" xml:space="preserve">
<style type="text/css">
	.st0{fill:#ADADAD;stroke:#666666;stroke-width:6;stroke-miterlimit:10;}
	.st1{font-family:'OCRAStd';}
	.st2{font-size:24px;}
	.st3{fill:#6AAA65;}
</style>
<g id="Layer_2">
</g>
<g id="Layer_3">
	<path class="st0" d="M532,136H294c-5.5,0-10-4.5-10-10v0c0-5.5,4.5-10,10-10h238c5.5,0,10,4.5,10,10v0C542,131.5,537.5,136,532,136
		z"/>
	<path class="st0" d="M254,152H36c-6.6,0-12-5.4-12-12v-30c0-6.6,5.4-12,12-12h218c6.6,0,12,5.4,12,12v30
		C266,146.6,260.6,152,254,152z"/>
	<text transform="matrix(1 0 0 1 56 133)" class="st1 st2">Turn Speed</text>
	<path class="st0" d="M534,198H296c-5.5,0-10-4.5-10-10v0c0-5.5,4.5-10,10-10h238c5.5,0,10,4.5,10,10v0C544,193.5,539.5,198,534,198
		z"/>
	<path class="st0" d="M256,214H38c-6.6,0-12-5.4-12-12v-30c0-6.6,5.4-12,12-12h218c6.6,0,12,5.4,12,12v30
		C268,208.6,262.6,214,256,214z"/>
	<text transform="matrix(1 0 0 1 58 195)" class="st1 st2">Damage</text>
	<path class="st0" d="M535,260H297c-5.5,0-10-4.5-10-10v0c0-5.5,4.5-10,10-10h238c5.5,0,10,4.5,10,10v0C545,255.5,540.5,260,535,260
		z"/>
	<path class="st0" d="M257,276H39c-6.6,0-12-5.4-12-12v-30c0-6.6,5.4-12,12-12h218c6.6,0,12,5.4,12,12v30
		C269,270.6,263.6,276,257,276z"/>
	<text transform="matrix(1 0 0 1 59 257)" class="st1 st2">Shell Speed</text>
	<path class="st0" d="M385,73H167c-6.6,0-12-5.4-12-12V31c0-6.6,5.4-12,12-12h218c6.6,0,12,5.4,12,12v30C397,67.6,391.6,73,385,73z"
		/>
	<text transform="matrix(1 0 0 1 199.2417 54)" class="st1 st2">Panzer IV</text>
	<path class="st0" d="M535,428H297c-5.5,0-10-4.5-10-10l0,0c0-5.5,4.5-10,10-10h238c5.5,0,10,4.5,10,10l0,0
		C545,423.5,540.5,428,535,428z"/>
	<path class="st0" d="M257,444H39c-6.6,0-12-5.4-12-12v-30c0-6.6,5.4-12,12-12h218c6.6,0,12,5.4,12,12v30
		C269,438.6,263.6,444,257,444z"/>
	<text transform="matrix(1 0 0 1 59 425)" class="st1 st2">Turn Speed</text>
	<path class="st0" d="M537,490H299c-5.5,0-10-4.5-10-10l0,0c0-5.5,4.5-10,10-10h238c5.5,0,10,4.5,10,10l0,0
		C547,485.5,542.5,490,537,490z"/>
	<path class="st0" d="M259,506H41c-6.6,0-12-5.4-12-12v-30c0-6.6,5.4-12,12-12h218c6.6,0,12,5.4,12,12v30
		C271,500.6,265.6,506,259,506z"/>
	<text transform="matrix(1 0 0 1 61 487)" class="st1 st2">Damage</text>
	<path class="st0" d="M538,552H300c-5.5,0-10-4.5-10-10l0,0c0-5.5,4.5-10,10-10h238c5.5,0,10,4.5,10,10l0,0
		C548,547.5,543.5,552,538,552z"/>
	<path class="st0" d="M260,568H42c-6.6,0-12-5.4-12-12v-30c0-6.6,5.4-12,12-12h218c6.6,0,12,5.4,12,12v30
		C272,562.6,266.6,568,260,568z"/>
	<text transform="matrix(1 0 0 1 62 549)" class="st1 st2">Shell Speed</text>
	<path class="st0" d="M388,365H170c-6.6,0-12-5.4-12-12v-30c0-6.6,5.4-12,12-12h218c6.6,0,12,5.4,12,12v30
		C400,359.6,394.6,365,388,365z"/>
	<text transform="matrix(1 0 0 1 254.0806 346)" class="st1 st2">T34</text>
	<path class="st3" d="M535,425H297c-3.9,0-7-3.1-7-7l0,0c0-3.9,3.1-7,7-7h238c3.8,0,7,3.1,7,7l0,0C542,421.9,538.8,425,535,425z"/>
	<path class="st3" d="M423,487H298c-3.9,0-7-3.1-7-7l0,0c0-3.9,3.1-7,7-7h125c3.9,0,7,3.1,7,7l0,0C430,483.9,426.9,487,423,487z"/>
	<path class="st3" d="M426,549H300c-3.9,0-7-3.2-7-7l0,0c0-3.8,3.1-7,7-7h126c3.9,0,7,3.2,7,7l0,0C433,545.8,429.9,549,426,549z"/>
	<path class="st0" d="M1131,135H893c-5.5,0-10-4.5-10-10v0c0-5.5,4.5-10,10-10h238c5.5,0,10,4.5,10,10v0
		C1141,130.5,1136.5,135,1131,135z"/>
	<path class="st0" d="M853,151H635c-6.6,0-12-5.4-12-12v-30c0-6.6,5.4-12,12-12h218c6.6,0,12,5.4,12,12v30
		C865,145.6,859.6,151,853,151z"/>
	<text transform="matrix(1 0 0 1 655 132)" class="st1 st2">Turn Speed</text>
	<path class="st0" d="M1133,197H895c-5.5,0-10-4.5-10-10v0c0-5.5,4.5-10,10-10h238c5.5,0,10,4.5,10,10v0
		C1143,192.5,1138.5,197,1133,197z"/>
	<path class="st0" d="M855,213H637c-6.6,0-12-5.4-12-12v-30c0-6.6,5.4-12,12-12h218c6.6,0,12,5.4,12,12v30
		C867,207.6,861.6,213,855,213z"/>
	<text transform="matrix(1 0 0 1 657 194)" class="st1 st2">Damage</text>
	<path class="st0" d="M1134,259H896c-5.5,0-10-4.5-10-10v0c0-5.5,4.5-10,10-10h238c5.5,0,10,4.5,10,10v0
		C1144,254.5,1139.5,259,1134,259z"/>
	<path class="st0" d="M856,275H638c-6.6,0-12-5.4-12-12v-30c0-6.6,5.4-12,12-12h218c6.6,0,12,5.4,12,12v30
		C868,269.6,862.6,275,856,275z"/>
	<text transform="matrix(1 0 0 1 658 256)" class="st1 st2">Shell Speed</text>
	<path class="st0" d="M984,72H766c-6.6,0-12-5.4-12-12V30c0-6.6,5.4-12,12-12h218c6.6,0,12,5.4,12,12v30C996,66.6,990.6,72,984,72z"
		/>
	<text transform="matrix(1 0 0 1 815.521 53)" class="st1 st2">Sherman</text>
	<path class="st0" d="M1134,427H896c-5.5,0-10-4.5-10-10l0,0c0-5.5,4.5-10,10-10h238c5.5,0,10,4.5,10,10l0,0
		C1144,422.5,1139.5,427,1134,427z"/>
	<path class="st0" d="M856,443H638c-6.6,0-12-5.4-12-12v-30c0-6.6,5.4-12,12-12h218c6.6,0,12,5.4,12,12v30
		C868,437.6,862.6,443,856,443z"/>
	<text transform="matrix(1 0 0 1 658 424)" class="st1 st2">Turn Speed</text>
	<path class="st0" d="M1136,489H898c-5.5,0-10-4.5-10-10l0,0c0-5.5,4.5-10,10-10h238c5.5,0,10,4.5,10,10l0,0
		C1146,484.5,1141.5,489,1136,489z"/>
	<path class="st0" d="M858,505H640c-6.6,0-12-5.4-12-12v-30c0-6.6,5.4-12,12-12h218c6.6,0,12,5.4,12,12v30
		C870,499.6,864.6,505,858,505z"/>
	<text transform="matrix(1 0 0 1 660 486)" class="st1 st2">Damage</text>
	<path class="st0" d="M1137,551H899c-5.5,0-10-4.5-10-10l0,0c0-5.5,4.5-10,10-10h238c5.5,0,10,4.5,10,10l0,0
		C1147,546.5,1142.5,551,1137,551z"/>
	<path class="st0" d="M859,567H641c-6.6,0-12-5.4-12-12v-30c0-6.6,5.4-12,12-12h218c6.6,0,12,5.4,12,12v30
		C871,561.6,865.6,567,859,567z"/>
	<text transform="matrix(1 0 0 1 661 548)" class="st1 st2">Shell Speed</text>
	<path class="st0" d="M987,364H769c-6.6,0-12-5.4-12-12v-30c0-6.6,5.4-12,12-12h218c6.6,0,12,5.4,12,12v30
		C999,358.6,993.6,364,987,364z"/>
	<text transform="matrix(1 0 0 1 809.8813 345)" class="st1 st2">Cromwell</text>
	<path class="st3" d="M1070,424H896c-3.8,0-7-3.1-7-7l0,0c0-3.9,3.2-7,7-7h174c3.8,0,7,3.1,7,7l0,0C1077,420.9,1073.8,424,1070,424z
		"/>
	<path class="st3" d="M1022,486H897c-3.8,0-7-3.1-7-7l0,0c0-3.9,3.2-7,7-7h125c3.8,0,7,3.1,7,7l0,0C1029,482.9,1025.8,486,1022,486z
		"/>
	<path class="st3" d="M1070,548H899c-3.8,0-7-3.2-7-7l0,0c0-3.8,3.2-7,7-7h171c3.8,0,7,3.2,7,7l0,0C1077,544.8,1073.8,548,1070,548z
		"/>
	<path class="st3" d="M1019,132H893c-3.8,0-7-3.1-7-7v0c0-3.8,3.2-7,7-7h126c3.8,0,7,3.1,7,7v0C1026,128.9,1022.8,132,1019,132z"/>
	<path class="st3" d="M1019,194H894c-3.8,0-7-3.1-7-7l0,0c0-3.9,3.2-7,7-7h125c3.8,0,7,3.1,7,7l0,0C1026,190.9,1022.8,194,1019,194z
		"/>
	<path class="st3" d="M1133,257H896c-3.8,0-7-3.1-7-7v-1c0-3.9,3.2-7,7-7h237c3.8,0,7,3.1,7,7v1C1140,253.9,1136.8,257,1133,257z"/>
</g>
<g id="Layer_1">
	<path class="st3" d="M420,133H294c-3.9,0-7-3.1-7-7v0c0-3.8,3.1-7,7-7h126c3.9,0,7,3.1,7,7v0C427,129.9,423.9,133,420,133z"/>
	<path class="st3" d="M535,195H295c-3.9,0-7-3.1-7-7l0,0c0-3.9,3.1-7,7-7h240c3.8,0,7,3.1,7,7l0,0C542,191.9,538.8,195,535,195z"/>
	<path class="st3" d="M423,257H297c-3.9,0-7-3.1-7-7l0,0c0-3.9,3.1-7,7-7h126c3.9,0,7,3.1,7,7l0,0C430,253.9,426.9,257,423,257z"/>
</g>
</svg>
